<?xml version="1.0" encoding="utf-8"?>
<svg xmlns="http://www.w3.org/2000/svg" xmlns:xlink="http://www.w3.org/1999/xlink" style="margin: auto; background: none; display: block; shape-rendering: auto;" width="663px" height="663px" viewBox="0 0 100 100" preserveAspectRatio="xMidYMid">
<g transform="rotate(0 50 50)">
  <rect x="44.5" y="6.5" rx="5.5" ry="5.5" width="11" height="11" fill="#0056ff">
    <animate attributeName="opacity" values="1;0" keyTimes="0;1" dur="0.7462686567164178s" begin="-0.708955223880597s" repeatCount="indefinite"></animate>
  </rect>
</g><g transform="rotate(18 50 50)">
  <rect x="44.5" y="6.5" rx="5.5" ry="5.5" width="11" height="11" fill="#0076d6">
    <animate attributeName="opacity" values="1;0" keyTimes="0;1" dur="0.7462686567164178s" begin="-0.6716417910447761s" repeatCount="indefinite"></animate>
  </rect>
</g><g transform="rotate(36 50 50)">
  <rect x="44.5" y="6.5" rx="5.5" ry="5.5" width="11" height="11" fill="#77b3f1">
    <animate attributeName="opacity" values="1;0" keyTimes="0;1" dur="0.7462686567164178s" begin="-0.6343283582089552s" repeatCount="indefinite"></animate>
  </rect>
</g><g transform="rotate(54 50 50)">
  <rect x="44.5" y="6.5" rx="5.5" ry="5.5" width="11" height="11" fill="#cce5ff">
    <animate attributeName="opacity" values="1;0" keyTimes="0;1" dur="0.7462686567164178s" begin="-0.5970149253731343s" repeatCount="indefinite"></animate>
  </rect>
</g><g transform="rotate(72 50 50)">
  <rect x="44.5" y="6.5" rx="5.5" ry="5.5" width="11" height="11" fill="#e6f4ff">
    <animate attributeName="opacity" values="1;0" keyTimes="0;1" dur="0.7462686567164178s" begin="-0.5597014925373134s" repeatCount="indefinite"></animate>
  </rect>
</g><g transform="rotate(90 50 50)">
  <rect x="44.5" y="6.5" rx="5.5" ry="5.5" width="11" height="11" fill="#0056ff">
    <animate attributeName="opacity" values="1;0" keyTimes="0;1" dur="0.7462686567164178s" begin="-0.5223880597014925s" repeatCount="indefinite"></animate>
  </rect>
</g><g transform="rotate(108 50 50)">
  <rect x="44.5" y="6.5" rx="5.5" ry="5.5" width="11" height="11" fill="#0076d6">
    <animate attributeName="opacity" values="1;0" keyTimes="0;1" dur="0.7462686567164178s" begin="-0.48507462686567165s" repeatCount="indefinite"></animate>
  </rect>
</g><g transform="rotate(126 50 50)">
  <rect x="44.5" y="6.5" rx="5.5" ry="5.5" width="11" height="11" fill="#77b3f1">
    <animate attributeName="opacity" values="1;0" keyTimes="0;1" dur="0.7462686567164178s" begin="-0.44776119402985076s" repeatCount="indefinite"></animate>
  </rect>
</g><g transform="rotate(144 50 50)">
  <rect x="44.5" y="6.5" rx="5.5" ry="5.5" width="11" height="11" fill="#cce5ff">
    <animate attributeName="opacity" values="1;0" keyTimes="0;1" dur="0.7462686567164178s" begin="-0.4104477611940298s" repeatCount="indefinite"></animate>
  </rect>
</g><g transform="rotate(162 50 50)">
  <rect x="44.5" y="6.5" rx="5.5" ry="5.5" width="11" height="11" fill="#e6f4ff">
    <animate attributeName="opacity" values="1;0" keyTimes="0;1" dur="0.7462686567164178s" begin="-0.3731343283582089s" repeatCount="indefinite"></animate>
  </rect>
</g><g transform="rotate(180 50 50)">
  <rect x="44.5" y="6.5" rx="5.5" ry="5.5" width="11" height="11" fill="#0056ff">
    <animate attributeName="opacity" values="1;0" keyTimes="0;1" dur="0.7462686567164178s" begin="-0.33582089552238803s" repeatCount="indefinite"></animate>
  </rect>
</g><g transform="rotate(198 50 50)">
  <rect x="44.5" y="6.5" rx="5.5" ry="5.5" width="11" height="11" fill="#0076d6">
    <animate attributeName="opacity" values="1;0" keyTimes="0;1" dur="0.7462686567164178s" begin="-0.29850746268656714s" repeatCount="indefinite"></animate>
  </rect>
</g><g transform="rotate(216 50 50)">
  <rect x="44.5" y="6.5" rx="5.5" ry="5.5" width="11" height="11" fill="#77b3f1">
    <animate attributeName="opacity" values="1;0" keyTimes="0;1" dur="0.7462686567164178s" begin="-0.26119402985074625s" repeatCount="indefinite"></animate>
  </rect>
</g><g transform="rotate(234 50 50)">
  <rect x="44.5" y="6.5" rx="5.5" ry="5.5" width="11" height="11" fill="#cce5ff">
    <animate attributeName="opacity" values="1;0" keyTimes="0;1" dur="0.7462686567164178s" begin="-0.22388059701492538s" repeatCount="indefinite"></animate>
  </rect>
</g><g transform="rotate(252 50 50)">
  <rect x="44.5" y="6.5" rx="5.5" ry="5.5" width="11" height="11" fill="#e6f4ff">
    <animate attributeName="opacity" values="1;0" keyTimes="0;1" dur="0.7462686567164178s" begin="-0.18656716417910446s" repeatCount="indefinite"></animate>
  </rect>
</g><g transform="rotate(270 50 50)">
  <rect x="44.5" y="6.5" rx="5.5" ry="5.5" width="11" height="11" fill="#0056ff">
    <animate attributeName="opacity" values="1;0" keyTimes="0;1" dur="0.7462686567164178s" begin="-0.14925373134328357s" repeatCount="indefinite"></animate>
  </rect>
</g><g transform="rotate(288 50 50)">
  <rect x="44.5" y="6.5" rx="5.5" ry="5.5" width="11" height="11" fill="#0076d6">
    <animate attributeName="opacity" values="1;0" keyTimes="0;1" dur="0.7462686567164178s" begin="-0.11194029850746269s" repeatCount="indefinite"></animate>
  </rect>
</g><g transform="rotate(306 50 50)">
  <rect x="44.5" y="6.5" rx="5.5" ry="5.5" width="11" height="11" fill="#77b3f1">
    <animate attributeName="opacity" values="1;0" keyTimes="0;1" dur="0.7462686567164178s" begin="-0.07462686567164178s" repeatCount="indefinite"></animate>
  </rect>
</g><g transform="rotate(324 50 50)">
  <rect x="44.5" y="6.5" rx="5.5" ry="5.5" width="11" height="11" fill="#cce5ff">
    <animate attributeName="opacity" values="1;0" keyTimes="0;1" dur="0.7462686567164178s" begin="-0.03731343283582089s" repeatCount="indefinite"></animate>
  </rect>
</g><g transform="rotate(342 50 50)">
  <rect x="44.5" y="6.5" rx="5.5" ry="5.5" width="11" height="11" fill="#e6f4ff">
    <animate attributeName="opacity" values="1;0" keyTimes="0;1" dur="0.7462686567164178s" begin="0s" repeatCount="indefinite"></animate>
  </rect>
</g>
<!-- [ldio] generated by https://loading.io/ --></svg>